# xmcd
#
# Track frame offsets: 
#        150
#        18759
#        42139
#        53856
#        66006
#        88987
#        104492
#        128642
#        145417
#        164844
#        179897
#        200830
#        216130
#
# Disc length: 3172 seconds
#
# Revision: 0
# Processed by: cddbd v1.5.2PL0 Copyright (c) Steve Scherf et al.
# Submitted via: ExactAudioCopy v1.3
#
DISCID=ca0c620d
DTITLE=Charlie Weyler - Endless Summer
DYEAR=2018
DGENRE=Country
TTITLE0=Whisperin' Wind
TTITLE1=Endless Summer
TTITLE2=Lone Star Of My Heart
TTITLE3=Chicken In A Cloud
TTITLE4=Gettin' On The Creek Bank
TTITLE5=Hill Country Nights
TTITLE6=Creek Bank Critter
TTITLE7=Too Close To Home
TTITLE8=Swift Waters
TTITLE9=Happy Wife, Happy Life
TTITLE10=Where Did He Go?
TTITLE11=Lone Star Shine
TTITLE12=Children Of Divorce
EXTD=
EXTT0=
EXTT1=
EXTT2=
EXTT3=
EXTT4=
EXTT5=
EXTT6=
EXTT7=
EXTT8=
EXTT9=
EXTT10=
EXTT11=
EXTT12=
PLAYORDER=
